<?xml version="1.0" encoding="utf-8"?>
<!-- Generator: Adobe Illustrator 21.1.0, SVG Export Plug-In . SVG Version: 6.00 Build 0)  -->
<svg version="1.1" id="Layer_1" xmlns="http://www.w3.org/2000/svg" xmlns:xlink="http://www.w3.org/1999/xlink" x="0px" y="0px"
	 viewBox="0 0 70 43.7" style="enable-background:new 0 0 70 43.7;" xml:space="preserve">
<style type="text/css">
	.st0{fill:none;stroke:#C1C1C1;stroke-width:4;stroke-linecap:square;stroke-miterlimit:10;}
	.st1{fill:none;stroke:#C1C1C1;stroke-width:2;stroke-linecap:square;stroke-miterlimit:10;}
</style>
<g>
	<g>
		<path class="st0" d="M9.9,5.9v28.3c0,1.1,0.9,2,2,2h46.2c1.1,0,2-0.9,2-2V5.9"/>
	</g>
	<g>
		<path class="st1" d="M53.3,9.5l-1.8,1.8c-0.8,0.8-2.1,0.8-2.8,0L46.3,9c-0.8-0.8-2.1-0.8-2.8,0l-2.3,2.3c-0.8,0.8-2.1,0.8-2.8,0
			L36,9c-0.8-0.8-2.1-0.8-2.8,0l-2.3,2.3c-0.8,0.8-2.1,0.8-2.8,0L25.8,9c-0.8-0.8-2.1-0.8-2.8,0l-2.3,2.3c-0.8,0.8-2.1,0.8-2.8,0
			l-2.1-2.1"/>
	</g>
	<g>
		<path class="st1" d="M32.3,25.8c2.7,0,5.2-1.2,6.9-3.1c-1.7-1.9-4.2-3.1-6.9-3.1c-2.7,0-5.2,1.2-6.9,3.1
			C27.1,24.6,29.6,25.8,32.3,25.8z"/>
		<polygon class="st1" points="43.1,26.6 39.1,22.7 43.1,18.7 		"/>
	</g>
</g>
</svg>
