<?xml version="1.0" encoding="utf-8"?>
<!-- Generator: Adobe Illustrator 21.1.0, SVG Export Plug-In . SVG Version: 6.00 Build 0)  -->
<svg version="1.1" id="Layer_1" xmlns="http://www.w3.org/2000/svg" xmlns:xlink="http://www.w3.org/1999/xlink" x="0px" y="0px"
	 viewBox="0 0 70 52" style="enable-background:new 0 0 70 52;" xml:space="preserve">
<style type="text/css">
	.st0{fill:none;stroke:#C1C1C1;stroke-width:4;stroke-linecap:square;stroke-miterlimit:10;}
	.st1{fill:none;stroke:#C1C1C1;stroke-width:3;stroke-linecap:square;stroke-miterlimit:10;}
	.st2{fill:none;stroke:#C1C1C1;stroke-width:2;stroke-linecap:square;stroke-miterlimit:10;}
	.st3{fill:none;stroke:#C1C1C1;stroke-linecap:square;stroke-miterlimit:10;}
</style>
<g>
	<g>
		<path class="st0" d="M6.3,3.5V38c0,1.1,0.9,2,2,2H62c1.1,0,2-0.9,2-2V3.5"/>
	</g>
	<g>
		<path class="st1" d="M63,49v-2.5c0-1.1-0.9-2-2-2H8.3c-1.1,0-2,0.9-2,2V49"/>
	</g>
	<g>
		<line class="st2" x1="63.8" y1="8" x2="6.9" y2="8"/>
	</g>
	<g>
		<line class="st2" x1="63.8" y1="31" x2="6.9" y2="31"/>
	</g>
	<g>
		<line class="st3" x1="63.8" y1="34" x2="6.9" y2="34"/>
	</g>
	<g>
		<line class="st2" x1="14.8" y1="9" x2="14.8" y2="29.6"/>
	</g>
	<g>
		<line class="st2" x1="22.8" y1="9" x2="22.8" y2="29.6"/>
	</g>
	<g>
		<line class="st2" x1="30.8" y1="9" x2="30.8" y2="29.6"/>
	</g>
	<g>
		<line class="st2" x1="38.8" y1="9" x2="38.8" y2="29.6"/>
	</g>
	<g>
		<line class="st2" x1="46.8" y1="9" x2="46.8" y2="29.6"/>
	</g>
	<g>
		<line class="st2" x1="54.8" y1="9" x2="54.8" y2="29.6"/>
	</g>
</g>
</svg>
