<?xml version="1.0" encoding="utf-8"?>
<!-- Generator: Adobe Illustrator 21.1.0, SVG Export Plug-In . SVG Version: 6.00 Build 0)  -->
<svg version="1.1" id="Layer_1" xmlns="http://www.w3.org/2000/svg" xmlns:xlink="http://www.w3.org/1999/xlink" x="0px" y="0px"
	 viewBox="0 0 70 58.7" style="enable-background:new 0 0 70 58.7;" xml:space="preserve">
<style type="text/css">
	.st0{fill:none;stroke:#C1C1C1;stroke-width:2;stroke-linecap:square;stroke-miterlimit:10;}
	.st1{fill:none;stroke:#C1C1C1;stroke-width:3;stroke-linecap:square;stroke-miterlimit:10;}
	.st2{fill:none;stroke:#C1C1C1;stroke-width:4;stroke-linecap:square;stroke-miterlimit:10;}
	.st3{fill:#FFFFFF;stroke:#C1C1C1;stroke-miterlimit:10;}
</style>
<g>
	<g>
		<line class="st0" x1="42.3" y1="17.8" x2="42.3" y2="51.4"/>
	</g>
	<g>
		<line class="st0" x1="4.8" y1="17.6" x2="67.8" y2="17.6"/>
	</g>
	<g>
		<line class="st0" x1="21.3" y1="4.3" x2="8.4" y2="4.3"/>
	</g>
	<g>
		<line class="st0" x1="42.3" y1="4.3" x2="29.4" y2="4.3"/>
	</g>
	<g>
		<line class="st0" x1="63.3" y1="4.3" x2="50.4" y2="4.3"/>
	</g>
	<g>
		<line class="st1" x1="12.6" y1="55.3" x2="6.4" y2="55.3"/>
	</g>
	<g>
		<line class="st1" x1="65.6" y1="55.3" x2="59.4" y2="55.3"/>
	</g>
	<g>
		<path class="st2" d="M68.3,50.3c0,1.1-0.9,2-2,2h-61c-1.1,0-2-0.9-2-2v-41c0-1.1,0.9-2,2-2h61c1.1,0,2,0.9,2,2V50.3z"/>
	</g>
	<g>
		<path class="st0" d="M35.3,39.8c0,1.1-0.9,2-2,2h-19c-1.1,0-2-0.9-2-2V27.9c0-1.1,0.9-2,2-2h19c1.1,0,2,0.9,2,2V39.8z"/>
	</g>
	<line class="st0" x1="25.9" y1="30.6" x2="18.3" y2="38.1"/>
	<line class="st0" x1="31.3" y1="30.6" x2="23.7" y2="38.1"/>
	<circle class="st3" cx="15.7" cy="12.9" r="1.6"/>
	<circle class="st3" cx="25.7" cy="12.9" r="1.6"/>
	<circle class="st3" cx="35.7" cy="12.9" r="1.6"/>
	<circle class="st3" cx="45.7" cy="12.9" r="1.6"/>
	<circle class="st3" cx="55.7" cy="12.9" r="1.6"/>
</g>
</svg>
