<?xml version="1.0" encoding="UTF-8" ?>
<!DOCTYPE svg PUBLIC "-//W3C//DTD SVG 1.1//EN" "http://www.w3.org/Graphics/SVG/1.1/DTD/svg11.dtd">
<svg width="42pt" height="42pt" viewBox="0 0 42 42" version="1.1" xmlns="http://www.w3.org/2000/svg">
<g id="#0024ffff">
<path fill="#0024ff" opacity="1.00" d=" M 19.54 0.00 L 22.32 0.00 C 32.54 0.51 41.35 9.24 42.00 19.44 L 42.00 22.88 C 41.15 32.90 32.53 41.40 22.47 42.00 L 19.67 42.00 C 9.63 41.49 1.04 33.10 0.00 23.16 L 0.00 19.53 C 0.59 9.33 9.35 0.60 19.54 0.00 M 19.13 11.28 C 12.16 12.31 8.58 21.57 13.12 26.98 C 17.24 32.96 27.47 31.73 30.08 24.97 C 33.49 18.09 26.59 9.47 19.13 11.28 Z" />
<path fill="#0024ff" opacity="1.00" d=" M 37.70 37.73 C 38.89 36.24 40.73 37.40 42.00 38.09 L 42.00 41.70 C 41.99 41.78 41.96 41.93 41.95 42.00 L 38.28 42.00 C 37.45 40.76 36.15 39.02 37.70 37.73 Z" />
</g>
</svg>
